<svg xmlns="http://www.w3.org/2000/svg" xmlns:xlink="http://www.w3.org/1999/xlink" width="1200" zoomAndPan="magnify" viewBox="0 0 900 225" height="300" preserveAspectRatio="xMidYMid meet" version="1.0"><defs><g/></defs><g fill="#ff3131" fill-opacity="1"><g transform="translate(20.142996, 169.673456)"><g><path d="M 71.578125 -79.125 C 74.765625 -82.6875 78.628906 -85.660156 83.171875 -88.046875 C 87.710938 -90.441406 92.3125 -91.640625 96.96875 -91.640625 C 102.25 -91.640625 107.1875 -90.75 111.78125 -88.96875 C 116.382812 -87.1875 120.375 -84.765625 123.75 -81.703125 C 127.125 -78.640625 129.757812 -75.113281 131.65625 -71.125 C 133.5625 -67.132812 134.515625 -62.867188 134.515625 -58.328125 L 134.515625 0 L 105.078125 0 L 105.078125 -53.359375 C 105.078125 -55.941406 104.398438 -58.242188 103.046875 -60.265625 C 101.703125 -62.285156 99.25 -63.296875 95.6875 -63.296875 C 92.132812 -63.296875 89.679688 -62.285156 88.328125 -60.265625 C 86.972656 -58.242188 86.296875 -55.941406 86.296875 -53.359375 L 86.296875 0 L 56.859375 0 L 56.859375 -53.359375 C 56.859375 -55.941406 56.179688 -58.242188 54.828125 -60.265625 C 53.484375 -62.285156 51.03125 -63.296875 47.46875 -63.296875 C 43.914062 -63.296875 41.460938 -62.285156 40.109375 -60.265625 C 38.765625 -58.242188 38.09375 -55.941406 38.09375 -53.359375 L 38.09375 0 L 8.65625 0 L 8.65625 -58.328125 C 8.65625 -62.867188 9.601562 -67.132812 11.5 -71.125 C 13.40625 -75.113281 16.015625 -78.640625 19.328125 -81.703125 C 22.640625 -84.765625 26.59375 -87.1875 31.1875 -88.96875 C 35.789062 -90.75 40.789062 -91.640625 46.1875 -91.640625 C 50.851562 -91.640625 55.453125 -90.441406 59.984375 -88.046875 C 64.523438 -85.660156 68.390625 -82.6875 71.578125 -79.125 Z M 71.578125 -79.125 "/></g></g></g><g fill="#ff3131" fill-opacity="1"><g transform="translate(163.296979, 169.673456)"><g><path d="M 97.34375 -44.71875 C 97.34375 -38.457031 96.113281 -32.503906 93.65625 -26.859375 C 91.207031 -21.222656 87.863281 -16.226562 83.625 -11.875 C 79.394531 -7.519531 74.488281 -4.082031 68.90625 -1.5625 C 63.332031 0.945312 57.414062 2.203125 51.15625 2.203125 C 44.894531 2.203125 38.972656 0.945312 33.390625 -1.5625 C 27.816406 -4.082031 22.910156 -7.519531 18.671875 -11.875 C 14.441406 -16.226562 11.097656 -21.222656 8.640625 -26.859375 C 6.191406 -32.503906 4.96875 -38.457031 4.96875 -44.71875 C 4.96875 -50.96875 6.191406 -56.914062 8.640625 -62.5625 C 11.097656 -68.207031 14.441406 -73.175781 18.671875 -77.46875 C 22.910156 -81.757812 27.816406 -85.191406 33.390625 -87.765625 C 38.972656 -90.347656 44.894531 -91.640625 51.15625 -91.640625 C 57.53125 -91.640625 63.507812 -90.347656 69.09375 -87.765625 C 74.675781 -85.191406 79.550781 -81.726562 83.71875 -77.375 C 87.894531 -73.019531 91.207031 -68.019531 93.65625 -62.375 C 96.113281 -56.738281 97.34375 -50.851562 97.34375 -44.71875 Z M 51.15625 -25.765625 C 53.726562 -25.765625 56.117188 -26.285156 58.328125 -27.328125 C 60.535156 -28.367188 62.4375 -29.78125 64.03125 -31.5625 C 65.625 -33.34375 66.847656 -35.363281 67.703125 -37.625 C 68.566406 -39.894531 69 -42.257812 69 -44.71875 C 69 -47.164062 68.566406 -49.523438 67.703125 -51.796875 C 66.847656 -54.066406 65.65625 -56.09375 64.125 -57.875 C 62.59375 -59.65625 60.691406 -61.066406 58.421875 -62.109375 C 56.148438 -63.148438 53.664062 -63.671875 50.96875 -63.671875 C 48.394531 -63.671875 46.035156 -63.148438 43.890625 -62.109375 C 41.742188 -61.066406 39.875 -59.65625 38.28125 -57.875 C 36.6875 -56.09375 35.457031 -54.066406 34.59375 -51.796875 C 33.738281 -49.523438 33.3125 -47.164062 33.3125 -44.71875 C 33.3125 -42.257812 33.738281 -39.894531 34.59375 -37.625 C 35.457031 -35.363281 36.6875 -33.34375 38.28125 -31.5625 C 39.875 -29.78125 41.773438 -28.367188 43.984375 -27.328125 C 46.191406 -26.285156 48.582031 -25.765625 51.15625 -25.765625 Z M 51.15625 -25.765625 "/></g></g></g><g fill="#ff3131" fill-opacity="1"><g transform="translate(265.602426, 169.673456)"><g><path d="M 84.46875 0 L 56.125 0 L 56.125 -51.703125 C 56.125 -55.140625 55.265625 -57.992188 53.546875 -60.265625 C 51.828125 -62.535156 49.3125 -63.671875 46 -63.671875 C 42.6875 -63.671875 40.171875 -62.535156 38.453125 -60.265625 C 36.742188 -57.992188 35.890625 -55.140625 35.890625 -51.703125 L 35.890625 0 L 7.546875 0 L 7.546875 -51.890625 C 7.546875 -57.660156 8.40625 -62.96875 10.125 -67.8125 C 11.84375 -72.65625 14.359375 -76.851562 17.671875 -80.40625 C 20.984375 -83.96875 25 -86.726562 29.71875 -88.6875 C 34.4375 -90.65625 39.863281 -91.640625 46 -91.640625 C 52.132812 -91.640625 57.59375 -90.625 62.375 -88.59375 C 67.164062 -86.570312 71.1875 -83.8125 74.4375 -80.3125 C 77.6875 -76.820312 80.171875 -72.625 81.890625 -67.71875 C 83.609375 -62.8125 84.46875 -57.535156 84.46875 -51.890625 Z M 84.46875 0 "/></g></g></g><g fill="#ff3131" fill-opacity="1"><g transform="translate(357.603731, 169.673456)"><g><path d="M 54.84375 -89.4375 C 61.957031 -89.4375 67.414062 -88.144531 71.21875 -85.5625 C 75.019531 -82.988281 76.921875 -78.453125 76.921875 -71.953125 C 76.921875 -69.492188 76.148438 -67.003906 74.609375 -64.484375 C 73.078125 -61.972656 71.703125 -59.984375 70.484375 -58.515625 L 43.25 -26.859375 L 76.734375 -26.859375 L 76.734375 0 L 18.578125 0 C 13.429688 0 9.445312 -1.441406 6.625 -4.328125 C 3.800781 -7.210938 2.390625 -11.410156 2.390625 -16.921875 C 2.390625 -21.710938 3.925781 -25.765625 7 -29.078125 L 38.453125 -63.671875 L 7.546875 -63.671875 L 7.546875 -89.4375 Z M 54.84375 -89.4375 "/></g></g></g><g fill="#ff3131" fill-opacity="1"><g transform="translate(439.300893, 169.673456)"><g><path d="M 97.34375 -44.71875 C 97.34375 -38.457031 96.113281 -32.503906 93.65625 -26.859375 C 91.207031 -21.222656 87.863281 -16.226562 83.625 -11.875 C 79.394531 -7.519531 74.488281 -4.082031 68.90625 -1.5625 C 63.332031 0.945312 57.414062 2.203125 51.15625 2.203125 C 44.894531 2.203125 38.972656 0.945312 33.390625 -1.5625 C 27.816406 -4.082031 22.910156 -7.519531 18.671875 -11.875 C 14.441406 -16.226562 11.097656 -21.222656 8.640625 -26.859375 C 6.191406 -32.503906 4.96875 -38.457031 4.96875 -44.71875 C 4.96875 -50.96875 6.191406 -56.914062 8.640625 -62.5625 C 11.097656 -68.207031 14.441406 -73.175781 18.671875 -77.46875 C 22.910156 -81.757812 27.816406 -85.191406 33.390625 -87.765625 C 38.972656 -90.347656 44.894531 -91.640625 51.15625 -91.640625 C 57.53125 -91.640625 63.507812 -90.347656 69.09375 -87.765625 C 74.675781 -85.191406 79.550781 -81.726562 83.71875 -77.375 C 87.894531 -73.019531 91.207031 -68.019531 93.65625 -62.375 C 96.113281 -56.738281 97.34375 -50.851562 97.34375 -44.71875 Z M 51.15625 -25.765625 C 53.726562 -25.765625 56.117188 -26.285156 58.328125 -27.328125 C 60.535156 -28.367188 62.4375 -29.78125 64.03125 -31.5625 C 65.625 -33.34375 66.847656 -35.363281 67.703125 -37.625 C 68.566406 -39.894531 69 -42.257812 69 -44.71875 C 69 -47.164062 68.566406 -49.523438 67.703125 -51.796875 C 66.847656 -54.066406 65.65625 -56.09375 64.125 -57.875 C 62.59375 -59.65625 60.691406 -61.066406 58.421875 -62.109375 C 56.148438 -63.148438 53.664062 -63.671875 50.96875 -63.671875 C 48.394531 -63.671875 46.035156 -63.148438 43.890625 -62.109375 C 41.742188 -61.066406 39.875 -59.65625 38.28125 -57.875 C 36.6875 -56.09375 35.457031 -54.066406 34.59375 -51.796875 C 33.738281 -49.523438 33.3125 -47.164062 33.3125 -44.71875 C 33.3125 -42.257812 33.738281 -39.894531 34.59375 -37.625 C 35.457031 -35.363281 36.6875 -33.34375 38.28125 -31.5625 C 39.875 -29.78125 41.773438 -28.367188 43.984375 -27.328125 C 46.191406 -26.285156 48.582031 -25.765625 51.15625 -25.765625 Z M 51.15625 -25.765625 "/></g></g></g><g fill="#ff3131" fill-opacity="1"><g transform="translate(541.606341, 169.673456)"><g><path d="M 64.40625 -89.4375 L 64.40625 -62.75 L 51.34375 -62.75 C 45.695312 -62.75 41.28125 -61.15625 38.09375 -57.96875 C 34.90625 -54.78125 33.3125 -50.363281 33.3125 -44.71875 C 33.3125 -39.070312 34.90625 -34.625 38.09375 -31.375 C 41.28125 -28.125 45.695312 -26.5 51.34375 -26.5 L 64.40625 -26.5 L 64.40625 0 L 46.1875 0 C 40.664062 0 35.328125 -1.070312 30.171875 -3.21875 C 25.023438 -5.363281 20.519531 -8.398438 16.65625 -12.328125 C 12.789062 -16.253906 9.691406 -20.976562 7.359375 -26.5 C 5.023438 -32.019531 3.859375 -38.09375 3.859375 -44.71875 C 3.859375 -51.46875 5.054688 -57.597656 7.453125 -63.109375 C 9.847656 -68.628906 13.003906 -73.320312 16.921875 -77.1875 C 20.847656 -81.050781 25.359375 -84.054688 30.453125 -86.203125 C 35.546875 -88.359375 40.789062 -89.4375 46.1875 -89.4375 Z M 64.40625 -89.4375 "/></g></g></g><g fill="#ff3131" fill-opacity="1"><g transform="translate(613.183353, 169.673456)"><g><path d="M 97.34375 -44.71875 C 97.34375 -38.457031 96.113281 -32.503906 93.65625 -26.859375 C 91.207031 -21.222656 87.863281 -16.226562 83.625 -11.875 C 79.394531 -7.519531 74.488281 -4.082031 68.90625 -1.5625 C 63.332031 0.945312 57.414062 2.203125 51.15625 2.203125 C 44.894531 2.203125 38.972656 0.945312 33.390625 -1.5625 C 27.816406 -4.082031 22.910156 -7.519531 18.671875 -11.875 C 14.441406 -16.226562 11.097656 -21.222656 8.640625 -26.859375 C 6.191406 -32.503906 4.96875 -38.457031 4.96875 -44.71875 C 4.96875 -50.96875 6.191406 -56.914062 8.640625 -62.5625 C 11.097656 -68.207031 14.441406 -73.175781 18.671875 -77.46875 C 22.910156 -81.757812 27.816406 -85.191406 33.390625 -87.765625 C 38.972656 -90.347656 44.894531 -91.640625 51.15625 -91.640625 C 57.53125 -91.640625 63.507812 -90.347656 69.09375 -87.765625 C 74.675781 -85.191406 79.550781 -81.726562 83.71875 -77.375 C 87.894531 -73.019531 91.207031 -68.019531 93.65625 -62.375 C 96.113281 -56.738281 97.34375 -50.851562 97.34375 -44.71875 Z M 51.15625 -25.765625 C 53.726562 -25.765625 56.117188 -26.285156 58.328125 -27.328125 C 60.535156 -28.367188 62.4375 -29.78125 64.03125 -31.5625 C 65.625 -33.34375 66.847656 -35.363281 67.703125 -37.625 C 68.566406 -39.894531 69 -42.257812 69 -44.71875 C 69 -47.164062 68.566406 -49.523438 67.703125 -51.796875 C 66.847656 -54.066406 65.65625 -56.09375 64.125 -57.875 C 62.59375 -59.65625 60.691406 -61.066406 58.421875 -62.109375 C 56.148438 -63.148438 53.664062 -63.671875 50.96875 -63.671875 C 48.394531 -63.671875 46.035156 -63.148438 43.890625 -62.109375 C 41.742188 -61.066406 39.875 -59.65625 38.28125 -57.875 C 36.6875 -56.09375 35.457031 -54.066406 34.59375 -51.796875 C 33.738281 -49.523438 33.3125 -47.164062 33.3125 -44.71875 C 33.3125 -42.257812 33.738281 -39.894531 34.59375 -37.625 C 35.457031 -35.363281 36.6875 -33.34375 38.28125 -31.5625 C 39.875 -29.78125 41.773438 -28.367188 43.984375 -27.328125 C 46.191406 -26.285156 48.582031 -25.765625 51.15625 -25.765625 Z M 51.15625 -25.765625 "/></g></g></g><g fill="#ff3131" fill-opacity="1"><g transform="translate(715.488801, 169.673456)"><g><path d="M 32.390625 -89.4375 L 32.390625 -74.53125 L 32.75 -74.53125 C 34.59375 -79.925781 37.382812 -83.757812 41.125 -86.03125 C 44.863281 -88.300781 50.660156 -89.4375 58.515625 -89.4375 L 58.515625 -62.5625 C 53.734375 -62.195312 49.898438 -61.738281 47.015625 -61.1875 C 44.128906 -60.632812 41.890625 -59.679688 40.296875 -58.328125 C 38.703125 -56.984375 37.628906 -55.082031 37.078125 -52.625 C 36.523438 -50.175781 36.25 -46.925781 36.25 -42.875 L 36.25 0 L 6.8125 0 L 6.8125 -89.4375 Z M 32.390625 -89.4375 "/></g></g></g><g fill="#ff3131" fill-opacity="1"><g transform="translate(776.761671, 169.673456)"><g><path d="M 104.890625 -128.8125 L 104.890625 -40.484375 C 104.890625 -34.109375 103.597656 -28.3125 101.015625 -23.09375 C 98.441406 -17.875 94.882812 -13.394531 90.34375 -9.65625 C 85.8125 -5.914062 80.445312 -3.003906 74.25 -0.921875 C 68.050781 1.160156 61.332031 2.203125 54.09375 2.203125 C 47.101562 2.203125 40.601562 1.007812 34.59375 -1.375 C 28.582031 -3.769531 23.367188 -7.082031 18.953125 -11.3125 C 14.535156 -15.550781 11.097656 -20.519531 8.640625 -26.21875 C 6.191406 -31.925781 4.96875 -38.15625 4.96875 -44.90625 C 4.96875 -52.019531 6.222656 -58.457031 8.734375 -64.21875 C 11.253906 -69.988281 14.691406 -74.894531 19.046875 -78.9375 C 23.398438 -82.988281 28.488281 -86.117188 34.3125 -88.328125 C 40.144531 -90.535156 46.3125 -91.640625 52.8125 -91.640625 C 56.125 -91.640625 58.945312 -91.425781 61.28125 -91 C 63.613281 -90.570312 65.515625 -90.050781 66.984375 -89.4375 L 66.984375 -62.203125 C 66.242188 -62.691406 64.863281 -63.242188 62.84375 -63.859375 C 60.820312 -64.472656 58.15625 -64.78125 54.84375 -64.78125 C 51.894531 -64.78125 49.160156 -64.285156 46.640625 -63.296875 C 44.128906 -62.316406 41.984375 -60.9375 40.203125 -59.15625 C 38.429688 -57.382812 37.019531 -55.269531 35.96875 -52.8125 C 34.925781 -50.351562 34.40625 -47.65625 34.40625 -44.71875 C 34.40625 -38.832031 36.304688 -34.015625 40.109375 -30.265625 C 43.910156 -26.523438 48.757812 -24.65625 54.65625 -24.65625 C 58.207031 -24.65625 61.269531 -25.269531 63.84375 -26.5 C 66.425781 -27.726562 68.578125 -29.382812 70.296875 -31.46875 C 72.015625 -33.550781 73.300781 -36.003906 74.15625 -38.828125 C 75.019531 -41.648438 75.453125 -44.65625 75.453125 -47.84375 L 75.453125 -128.8125 Z M 104.890625 -128.8125 "/></g></g></g><path stroke-linecap="butt" transform="matrix(3.03509, 0, 0, 3.03509, 15.425655, 4.096346)" fill="none" stroke-linejoin="miter" d="M 23.579707 26.932808 C 24.636358 25.759038 25.90923 24.777034 27.398323 23.988085 C 28.898999 23.197849 30.418981 22.804018 31.958268 22.804018 C 33.694471 22.804018 35.318702 23.100035 36.828387 23.692069 C 38.347082 24.273806 39.659852 25.073051 40.76541 26.089804 C 41.879978 27.096261 42.748723 28.255875 43.370358 29.568645 C 44.002289 30.880128 44.317611 32.286851 44.317611 33.78624 L 44.317611 53.000302 L 34.622419 53.000302 L 34.622419 35.414332 C 34.622419 34.56618 34.40105 33.811981 33.955738 33.150447 C 33.511713 32.478618 32.703458 32.14399 31.5284 32.14399 C 30.35463 32.14399 29.545088 32.478618 29.101063 33.150447 C 28.657038 33.811981 28.435669 34.56618 28.435669 35.414332 L 28.435669 53.000302 L 18.739189 53.000302 L 18.739189 35.414332 C 18.739189 34.56618 18.51782 33.811981 18.073795 33.150447 C 17.62977 32.478618 16.820228 32.14399 15.646458 32.14399 C 14.4714 32.14399 13.661858 32.478618 13.217833 33.150447 C 12.773808 33.811981 12.552439 34.56618 12.552439 35.414332 L 12.552439 53.000302 L 2.857247 53.000302 L 2.857247 33.78624 C 2.857247 32.286851 3.167421 30.880128 3.789056 29.568645 C 4.410691 28.255875 5.26914 27.096261 6.364402 26.089804 C 7.460951 25.073051 8.763425 24.273806 10.27311 23.692069 C 11.793092 23.100035 13.440489 22.804018 15.21659 22.804018 C 16.755877 22.804018 18.270711 23.197849 19.761091 23.988085 C 21.26048 24.777034 22.533352 25.759038 23.579707 26.932808 Z M 79.242441 38.271537 C 79.242441 40.334645 78.838314 42.293504 78.028772 44.148114 C 77.219231 46.00401 76.114959 47.651408 74.713384 49.091593 C 73.322106 50.52277 71.708171 51.652782 69.872867 52.481629 C 68.037563 53.310476 66.089 53.724899 64.025892 53.724899 C 61.964071 53.724899 60.010361 53.310476 58.16476 52.481629 C 56.329457 51.652782 54.710374 50.52277 53.308799 49.091593 C 51.91752 47.651408 50.81711 46.00401 50.008855 44.148114 C 49.20961 42.293504 48.809344 40.334645 48.809344 38.271537 C 48.809344 36.209716 49.20961 34.250858 50.008855 32.394961 C 50.81711 30.530056 51.91752 28.891667 53.308799 27.481083 C 54.710374 26.060203 56.329457 24.925043 58.16476 24.07689 C 60.010361 23.227451 61.964071 22.804018 64.025892 22.804018 C 66.127611 22.804018 68.096766 23.227451 69.93207 24.07689 C 71.767374 24.925043 73.371013 26.069212 74.742986 27.510685 C 76.123969 28.941861 77.219231 30.589259 78.028772 32.454165 C 78.838314 34.310061 79.242441 36.248327 79.242441 38.271537 Z M 64.025892 44.518778 C 64.875332 44.518778 65.659133 44.345029 66.379869 44.000105 C 67.109615 43.655181 67.736398 43.190564 68.258932 42.608826 C 68.791762 42.016793 69.197176 41.350112 69.473888 40.61007 C 69.759608 39.861019 69.902468 39.081079 69.902468 38.271537 C 69.902468 37.461996 69.759608 36.683343 69.473888 35.933005 C 69.197176 35.182667 68.802058 34.517273 68.288534 33.934248 C 67.785305 33.342215 67.159809 32.878884 66.409471 32.54297 C 65.669429 32.198046 64.854739 32.025584 63.966689 32.025584 C 63.118537 32.025584 62.338597 32.198046 61.628157 32.54297 C 60.917716 32.878884 60.301229 33.342215 59.777408 33.934248 C 59.254874 34.517273 58.850747 35.182667 58.56374 35.933005 C 58.278019 36.683343 58.135159 37.461996 58.135159 38.271537 C 58.135159 39.081079 58.278019 39.861019 58.56374 40.61007 C 58.850747 41.350112 59.254874 42.016793 59.777408 42.608826 C 60.301229 43.190564 60.928013 43.655181 61.657758 44.000105 C 62.387504 44.345029 63.17774 44.518778 64.025892 44.518778 Z M 108.702543 53.000302 L 99.361284 53.000302 L 99.361284 35.962607 C 99.361284 34.827447 99.080712 33.890489 98.51828 33.150447 C 97.955848 32.400109 97.127001 32.025584 96.031739 32.025584 C 94.936477 32.025584 94.10763 32.400109 93.545198 33.150447 C 92.981479 33.890489 92.700907 34.827447 92.700907 35.962607 L 92.700907 53.000302 L 83.360935 53.000302 L 83.360935 35.903403 C 83.360935 33.9986 83.641507 32.252101 84.203939 30.663907 C 84.776667 29.064129 85.605514 27.677999 86.691767 26.504228 C 87.787029 25.32917 89.108808 24.421814 90.658391 23.780874 C 92.216984 23.129637 94.008529 22.804018 96.031739 22.804018 C 98.054949 22.804018 99.850355 23.138646 101.419244 23.810475 C 102.998429 24.470721 104.320208 25.379364 105.385869 26.533829 C 106.461825 27.688295 107.281663 29.074425 107.844095 30.693508 C 108.415536 32.311304 108.702543 34.048794 108.702543 35.903403 Z M 129.260264 23.528616 C 131.598796 23.528616 133.394202 23.953335 134.647769 24.801488 C 135.901335 25.650927 136.528119 27.145168 136.528119 29.286785 C 136.528119 30.096327 136.275861 30.914877 135.772632 31.743724 C 135.269404 32.572571 134.815083 33.228956 134.410955 33.712879 L 125.440361 44.148114 L 136.468915 44.148114 L 136.468915 53.000302 L 117.314057 53.000302 C 115.617752 53.000302 114.299834 52.526675 113.362877 51.579421 C 112.434929 50.621871 111.970311 49.235741 111.970311 47.419742 C 111.970311 45.840557 112.478688 44.508482 113.495441 43.423516 L 123.857314 32.025584 L 113.673051 32.025584 L 113.673051 23.528616 Z M 170.180076 38.271537 C 170.180076 40.334645 169.775949 42.293504 168.966407 44.148114 C 168.156866 46.00401 167.052595 47.651408 165.65102 49.091593 C 164.259741 50.52277 162.645806 51.652782 160.810502 52.481629 C 158.975198 53.310476 157.026636 53.724899 154.963528 53.724899 C 152.901707 53.724899 150.947996 53.310476 149.102396 52.481629 C 147.267092 51.652782 145.648009 50.52277 144.246434 49.091593 C 142.855155 47.651408 141.754745 46.00401 140.946491 44.148114 C 140.147245 42.293504 139.746979 40.334645 139.746979 38.271537 C 139.746979 36.209716 140.147245 34.250858 140.946491 32.394961 C 141.754745 30.530056 142.855155 28.891667 144.246434 27.481083 C 145.648009 26.060203 147.267092 24.925043 149.102396 24.07689 C 150.947996 23.227451 152.901707 22.804018 154.963528 22.804018 C 157.065247 22.804018 159.034402 23.227451 160.869705 24.07689 C 162.705009 24.925043 164.308648 26.069212 165.680621 27.510685 C 167.061604 28.941861 168.156866 30.589259 168.966407 32.454165 C 169.775949 34.310061 170.180076 36.248327 170.180076 38.271537 Z M 154.963528 44.518778 C 155.812967 44.518778 156.596768 44.345029 157.317504 44.000105 C 158.04725 43.655181 158.674033 43.190564 159.196567 42.608826 C 159.729397 42.016793 160.134812 41.350112 160.411523 40.61007 C 160.697244 39.861019 160.840104 39.081079 160.840104 38.271537 C 160.840104 37.461996 160.697244 36.683343 160.411523 35.933005 C 160.134812 35.182667 159.739694 34.517273 159.226169 33.934248 C 158.72294 33.342215 158.097444 32.878884 157.347106 32.54297 C 156.607064 32.198046 155.792375 32.025584 154.904324 32.025584 C 154.056172 32.025584 153.276232 32.198046 152.565792 32.54297 C 151.855352 32.878884 151.238865 33.342215 150.715044 33.934248 C 150.19251 34.517273 149.788382 35.182667 149.501375 35.933005 C 149.215654 36.683343 149.072794 37.461996 149.072794 38.271537 C 149.072794 39.081079 149.215654 39.861019 149.501375 40.61007 C 149.788382 41.350112 150.19251 42.016793 150.715044 42.608826 C 151.238865 43.190564 151.865648 43.655181 152.595394 44.000105 C 153.325139 44.345029 154.115375 44.518778 154.963528 44.518778 Z M 193.037718 23.528616 L 193.037718 32.321601 L 188.730031 32.321601 C 186.865125 32.321601 185.404347 32.849283 184.348983 33.904647 C 183.302628 34.951002 182.780094 36.406632 182.780094 38.271537 C 182.780094 40.127434 183.302628 41.592073 184.348983 42.66803 C 185.404347 43.73369 186.865125 44.26652 188.730031 44.26652 L 193.037718 44.26652 L 193.037718 53.000302 L 187.028578 53.000302 C 185.212579 53.000302 183.455784 52.65023 181.758192 51.948799 C 180.061888 51.238358 178.576656 50.23705 177.302497 48.943585 C 176.029625 47.641111 175.00901 46.082519 174.239367 44.26652 C 173.469723 42.450522 173.084901 40.453052 173.084901 38.271537 C 173.084901 36.041115 173.478732 34.019192 174.268968 32.203194 C 175.057917 30.387195 176.099124 28.84276 177.391302 27.569888 C 178.684766 26.297016 180.169998 25.304716 181.846997 24.594276 C 183.525284 23.883836 185.252477 23.528616 187.028578 23.528616 Z M 227.470902 38.271537 C 227.470902 40.334645 227.066775 42.293504 226.257233 44.148114 C 225.447692 46.00401 224.343421 47.651408 222.941846 49.091593 C 221.550567 50.52277 219.936632 51.652782 218.101328 52.481629 C 216.266024 53.310476 214.317462 53.724899 212.254354 53.724899 C 210.192533 53.724899 208.237535 53.310476 206.393222 52.481629 C 204.556631 51.652782 202.938835 50.52277 201.53726 49.091593 C 200.145981 47.651408 199.045571 46.00401 198.237317 44.148114 C 197.436784 42.293504 197.037805 40.334645 197.037805 38.271537 C 197.037805 36.209716 197.436784 34.250858 198.237317 32.394961 C 199.045571 30.530056 200.145981 28.891667 201.53726 27.481083 C 202.938835 26.060203 204.556631 24.925043 206.393222 24.07689 C 208.237535 23.227451 210.192533 22.804018 212.254354 22.804018 C 214.356073 22.804018 216.325228 23.227451 218.160532 24.07689 C 219.995835 24.925043 221.599474 26.069212 222.971447 27.510685 C 224.35243 28.941861 225.447692 30.589259 226.257233 32.454165 C 227.066775 34.310061 227.470902 36.248327 227.470902 38.271537 Z M 212.254354 44.518778 C 213.102506 44.518778 213.887594 44.345029 214.60833 44.000105 C 215.338076 43.655181 215.964859 43.190564 216.487393 42.608826 C 217.020224 42.016793 217.425638 41.350112 217.701062 40.61007 C 217.98807 39.861019 218.13093 39.081079 218.13093 38.271537 C 218.13093 37.461996 217.98807 36.683343 217.701062 35.933005 C 217.425638 35.182667 217.03052 34.517273 216.516995 33.934248 C 216.013767 33.342215 215.386983 32.878884 214.637932 32.54297 C 213.89789 32.198046 213.083201 32.025584 212.19515 32.025584 C 211.346998 32.025584 210.567058 32.198046 209.856618 32.54297 C 209.146178 32.878884 208.529691 33.342215 208.00587 33.934248 C 207.483336 34.517273 207.079209 35.182667 206.792201 35.933005 C 206.50648 36.683343 206.36362 37.461996 206.36362 38.271537 C 206.36362 39.081079 206.50648 39.861019 206.792201 40.61007 C 207.079209 41.350112 207.483336 42.016793 208.00587 42.608826 C 208.529691 43.190564 209.155187 43.655181 209.88622 44.000105 C 210.615965 44.345029 211.406201 44.518778 212.254354 44.518778 Z M 239.774903 23.528616 L 239.774903 28.442494 L 239.89331 28.442494 C 240.504649 26.666393 241.422301 25.403818 242.646266 24.653479 C 243.87924 23.903141 245.794339 23.528616 248.388991 23.528616 L 248.388991 32.380804 C 246.811093 32.50822 245.542082 32.666524 244.585819 32.854431 C 243.638565 33.032041 242.902384 33.342215 242.379851 33.78624 C 241.857317 34.230265 241.502096 34.857048 241.31419 35.66659 C 241.13658 36.465835 241.047775 37.536644 241.047775 38.879015 L 241.047775 53.000302 L 231.352583 53.000302 L 231.352583 23.528616 Z M 283.853085 10.561795 L 283.853085 39.662816 C 283.853085 41.764535 283.429653 43.674487 282.580213 45.391384 C 281.732061 47.108281 280.55829 48.584504 279.057614 49.817478 C 277.567234 51.050452 275.80143 52.01315 273.758914 52.704285 C 271.716398 53.385123 269.500134 53.724899 267.112694 53.724899 C 264.812773 53.724899 262.671156 53.331068 260.687844 52.540832 C 258.704531 51.751883 256.982486 50.661769 255.521708 49.269203 C 254.071225 47.877925 252.941214 46.244684 252.132959 44.37077 C 251.332427 42.485272 250.933448 40.43246 250.933448 38.212334 C 250.933448 35.863505 251.347871 33.742481 252.176718 31.847974 C 253.005565 29.94317 254.135577 28.324087 255.566754 26.992012 C 256.99793 25.659936 258.669781 24.629026 260.584881 23.89928 C 262.50899 23.168248 264.546358 22.804018 266.698271 22.804018 C 267.783237 22.804018 268.711185 22.877379 269.480828 23.025387 C 270.250472 23.163099 270.877255 23.3317 271.359891 23.528616 L 271.359891 32.513368 C 271.114069 32.346054 270.654599 32.163296 269.984057 31.96638 C 269.322524 31.759169 268.449918 31.654919 267.363665 31.654919 C 266.38681 31.654919 265.484602 31.818372 264.654468 32.14399 C 263.825621 32.469609 263.120329 32.927791 262.538592 33.519825 C 261.955567 34.102849 261.492237 34.797845 261.147313 35.607387 C 260.801102 36.406632 260.62864 37.294682 260.62864 38.271537 C 260.62864 40.205943 261.255424 41.790276 262.50899 43.02325 C 263.762557 44.256224 265.361047 44.873998 267.304462 44.873998 C 268.469223 44.873998 269.47568 44.670647 270.323833 44.26652 C 271.173272 43.862393 271.878564 43.319267 272.440996 42.638428 C 273.013724 41.947293 273.437157 41.139039 273.713868 40.211091 C 274.000876 39.283142 274.143736 38.29213 274.143736 37.235479 L 274.143736 10.561795 Z M 283.853085 10.561795 " stroke="#8f0000" stroke-width="2.273861" stroke-opacity="1" stroke-miterlimit="4"/></svg>